<svg id="visual" viewBox="0 0 300 600" width="300" height="600" xmlns="http://www.w3.org/2000/svg" xmlns:xlink="http://www.w3.org/1999/xlink" version="1.1"><rect x="0" y="0" width="300" height="600" fill="#2c2a9c"></rect><path d="M0 299L5.5 297C11 295 22 291 33.2 291C44.3 291 55.7 295 66.8 294.2C78 293.3 89 287.7 100 285.7C111 283.7 122 285.3 133.2 290.2C144.3 295 155.7 303 166.8 309.7C178 316.3 189 321.7 200 324.8C211 328 222 329 233.2 331.5C244.3 334 255.7 338 266.8 337.7C278 337.3 289 332.7 294.5 330.3L300 328L300 601L294.5 601C289 601 278 601 266.8 601C255.7 601 244.3 601 233.2 601C222 601 211 601 200 601C189 601 178 601 166.8 601C155.7 601 144.3 601 133.2 601C122 601 111 601 100 601C89 601 78 601 66.8 601C55.7 601 44.3 601 33.2 601C22 601 11 601 5.5 601L0 601Z" fill="#635fc3"></path><path d="M0 363L5.5 361.5C11 360 22 357 33.2 354.2C44.3 351.3 55.7 348.7 66.8 343.7C78 338.7 89 331.3 100 334C111 336.7 122 349.3 133.2 348.5C144.3 347.7 155.7 333.3 166.8 324.8C178 316.3 189 313.7 200 316.3C211 319 222 327 233.2 335.7C244.3 344.3 255.7 353.7 266.8 351.7C278 349.7 289 336.3 294.5 329.7L300 323L300 601L294.5 601C289 601 278 601 266.8 601C255.7 601 244.3 601 233.2 601C222 601 211 601 200 601C189 601 178 601 166.8 601C155.7 601 144.3 601 133.2 601C122 601 111 601 100 601C89 601 78 601 66.8 601C55.7 601 44.3 601 33.2 601C22 601 11 601 5.5 601L0 601Z" fill="#5955bf"></path><path d="M0 353L5.5 357.7C11 362.3 22 371.7 33.2 369.3C44.3 367 55.7 353 66.8 350.8C78 348.7 89 358.3 100 368.3C111 378.3 122 388.7 133.2 391.5C144.3 394.3 155.7 389.7 166.8 386.7C178 383.7 189 382.3 200 377.5C211 372.7 222 364.3 233.2 359.8C244.3 355.3 255.7 354.7 266.8 353.7C278 352.7 289 351.3 294.5 350.7L300 350L300 601L294.5 601C289 601 278 601 266.8 601C255.7 601 244.3 601 233.2 601C222 601 211 601 200 601C189 601 178 601 166.8 601C155.7 601 144.3 601 133.2 601C122 601 111 601 100 601C89 601 78 601 66.8 601C55.7 601 44.3 601 33.2 601C22 601 11 601 5.5 601L0 601Z" fill="#4f4bbb"></path><path d="M0 400L5.5 398.3C11 396.7 22 393.3 33.2 390.8C44.3 388.3 55.7 386.7 66.8 389.8C78 393 89 401 100 402.5C111 404 122 399 133.2 394C144.3 389 155.7 384 166.8 382.2C178 380.3 189 381.7 200 380.3C211 379 222 375 233.2 382.3C244.3 389.7 255.7 408.3 266.8 416.5C278 424.7 289 422.3 294.5 421.2L300 420L300 601L294.5 601C289 601 278 601 266.8 601C255.7 601 244.3 601 233.2 601C222 601 211 601 200 601C189 601 178 601 166.8 601C155.7 601 144.3 601 133.2 601C122 601 111 601 100 601C89 601 78 601 66.8 601C55.7 601 44.3 601 33.2 601C22 601 11 601 5.5 601L0 601Z" fill="#4440b7"></path><path d="M0 419L5.5 421.8C11 424.7 22 430.3 33.2 434.5C44.3 438.7 55.7 441.3 66.8 436.8C78 432.3 89 420.7 100 422.7C111 424.7 122 440.3 133.2 442C144.3 443.7 155.7 431.3 166.8 431C178 430.7 189 442.3 200 443.8C211 445.3 222 436.7 233.2 429.2C244.3 421.7 255.7 415.3 266.8 413.2C278 411 289 413 294.5 414L300 415L300 601L294.5 601C289 601 278 601 266.8 601C255.7 601 244.3 601 233.2 601C222 601 211 601 200 601C189 601 178 601 166.8 601C155.7 601 144.3 601 133.2 601C122 601 111 601 100 601C89 601 78 601 66.8 601C55.7 601 44.3 601 33.2 601C22 601 11 601 5.5 601L0 601Z" fill="#423eb6"></path><path d="M0 477L5.5 477.3C11 477.7 22 478.3 33.2 472.2C44.3 466 55.7 453 66.8 450C78 447 89 454 100 459C111 464 122 467 133.2 466.5C144.3 466 155.7 462 166.8 463C178 464 189 470 200 472.8C211 475.7 222 475.3 233.2 469.8C244.3 464.3 255.7 453.7 266.8 449.7C278 445.7 289 448.3 294.5 449.7L300 451L300 601L294.5 601C289 601 278 601 266.8 601C255.7 601 244.3 601 233.2 601C222 601 211 601 200 601C189 601 178 601 166.8 601C155.7 601 144.3 601 133.2 601C122 601 111 601 100 601C89 601 78 601 66.8 601C55.7 601 44.3 601 33.2 601C22 601 11 601 5.5 601L0 601Z" fill="#4440b7"></path><path d="M0 498L5.5 497C11 496 22 494 33.2 494.2C44.3 494.3 55.7 496.7 66.8 497.7C78 498.7 89 498.3 100 497.8C111 497.3 122 496.7 133.2 493.5C144.3 490.3 155.7 484.7 166.8 485.3C178 486 189 493 200 492.8C211 492.7 222 485.3 233.2 483.8C244.3 482.3 255.7 486.7 266.8 486.5C278 486.3 289 481.7 294.5 479.3L300 477L300 601L294.5 601C289 601 278 601 266.8 601C255.7 601 244.3 601 233.2 601C222 601 211 601 200 601C189 601 178 601 166.8 601C155.7 601 144.3 601 133.2 601C122 601 111 601 100 601C89 601 78 601 66.8 601C55.7 601 44.3 601 33.2 601C22 601 11 601 5.5 601L0 601Z" fill="#4f4bbb"></path><path d="M0 530L5.5 526.7C11 523.3 22 516.7 33.2 516.2C44.3 515.7 55.7 521.3 66.8 525C78 528.7 89 530.3 100 529.7C111 529 122 526 133.2 524C144.3 522 155.7 521 166.8 521.5C178 522 189 524 200 522.7C211 521.3 222 516.7 233.2 517.3C244.3 518 255.7 524 266.8 526.8C278 529.7 289 529.3 294.5 529.2L300 529L300 601L294.5 601C289 601 278 601 266.8 601C255.7 601 244.3 601 233.2 601C222 601 211 601 200 601C189 601 178 601 166.8 601C155.7 601 144.3 601 133.2 601C122 601 111 601 100 601C89 601 78 601 66.8 601C55.7 601 44.3 601 33.2 601C22 601 11 601 5.5 601L0 601Z" fill="#5955bf"></path><path d="M0 546L5.5 547.3C11 548.7 22 551.3 33.2 553C44.3 554.7 55.7 555.3 66.8 554.5C78 553.7 89 551.3 100 550.7C111 550 122 551 133.2 552.5C144.3 554 155.7 556 166.8 554.8C178 553.7 189 549.3 200 547.2C211 545 222 545 233.2 547.3C244.3 549.7 255.7 554.3 266.8 554.7C278 555 289 551 294.5 549L300 547L300 601L294.5 601C289 601 278 601 266.8 601C255.7 601 244.3 601 233.2 601C222 601 211 601 200 601C189 601 178 601 166.8 601C155.7 601 144.3 601 133.2 601C122 601 111 601 100 601C89 601 78 601 66.8 601C55.7 601 44.3 601 33.2 601C22 601 11 601 5.5 601L0 601Z" fill="#635fc3"></path></svg>