<svg id="visual" viewBox="0 0 300 600" width="300" height="600" xmlns="http://www.w3.org/2000/svg" xmlns:xlink="http://www.w3.org/1999/xlink" version="1.1"><rect x="0" y="0" width="300" height="600" fill="#9994e6"></rect><path d="M0 368L8.3 367.2C16.7 366.3 33.3 364.7 50 363.3C66.7 362 83.3 361 100 369.2C116.7 377.3 133.3 394.7 150 396.5C166.7 398.3 183.3 384.7 200 376.2C216.7 367.7 233.3 364.3 250 366.5C266.7 368.7 283.3 376.3 291.7 380.2L300 384L300 601L291.7 601C283.3 601 266.7 601 250 601C233.3 601 216.7 601 200 601C183.3 601 166.7 601 150 601C133.3 601 116.7 601 100 601C83.3 601 66.7 601 50 601C33.3 601 16.7 601 8.3 601L0 601Z" fill="#7c77d4" stroke-linecap="round" stroke-linejoin="miter"></path></svg>