<svg id="visual" viewBox="0 0 300 600" width="300" height="600" xmlns="http://www.w3.org/2000/svg" xmlns:xlink="http://www.w3.org/1999/xlink" version="1.1"><rect x="0" y="0" width="300" height="600" fill="#7c77d4"></rect><path d="M0 321L6.3 304.8C12.7 288.7 25.3 256.3 37.8 265C50.3 273.7 62.7 323.3 75.2 330.2C87.7 337 100.3 301 112.8 294.7C125.3 288.3 137.7 311.7 150.2 327.8C162.7 344 175.3 353 187.8 351.2C200.3 349.3 212.7 336.7 225.2 314.2C237.7 291.7 250.3 259.3 262.8 240.8C275.3 222.3 287.7 217.7 293.8 215.3L300 213L300 601L293.8 601C287.7 601 275.3 601 262.8 601C250.3 601 237.7 601 225.2 601C212.7 601 200.3 601 187.8 601C175.3 601 162.7 601 150.2 601C137.7 601 125.3 601 112.8 601C100.3 601 87.7 601 75.2 601C62.7 601 50.3 601 37.8 601C25.3 601 12.7 601 6.3 601L0 601Z" fill="#5a56c2" stroke-linecap="round" stroke-linejoin="miter"></path></svg>