<svg id="visual" viewBox="0 0 300 600" width="300" height="600" xmlns="http://www.w3.org/2000/svg" xmlns:xlink="http://www.w3.org/1999/xlink" version="1.1"><rect x="0" y="0" width="300" height="600" fill="#15152f"></rect><path d="M0 215L5 215.3C10 215.7 20 216.3 30 223.3C40 230.3 50 243.7 60 228.3C70 213 80 169 90 142.7C100 116.3 110 107.7 120 132.8C130 158 140 217 150 219.7C160 222.3 170 168.7 180 131.2C190 93.7 200 72.3 210 97.2C220 122 230 193 240 231.2C250 269.3 260 274.7 270 259C280 243.3 290 206.7 295 188.3L300 170L300 601L295 601C290 601 280 601 270 601C260 601 250 601 240 601C230 601 220 601 210 601C200 601 190 601 180 601C170 601 160 601 150 601C140 601 130 601 120 601C110 601 100 601 90 601C80 601 70 601 60 601C50 601 40 601 30 601C20 601 10 601 5 601L0 601Z" fill="#383773"></path><path d="M0 271L5 246.5C10 222 20 173 30 164.7C40 156.3 50 188.7 60 200.8C70 213 80 205 90 195.5C100 186 110 175 120 193.8C130 212.7 140 261.3 150 279.5C160 297.7 170 285.3 180 274.8C190 264.3 200 255.7 210 233C220 210.3 230 173.7 240 180.8C250 188 260 239 270 242.8C280 246.7 290 203.3 295 181.7L300 160L300 601L295 601C290 601 280 601 270 601C260 601 250 601 240 601C230 601 220 601 210 601C200 601 190 601 180 601C170 601 160 601 150 601C140 601 130 601 120 601C110 601 100 601 90 601C80 601 70 601 60 601C50 601 40 601 30 601C20 601 10 601 5 601L0 601Z" fill="#2b2d60"></path><path d="M0 228L5 230.8C10 233.7 20 239.3 30 251.8C40 264.3 50 283.7 60 299.5C70 315.3 80 327.7 90 301.8C100 276 110 212 120 208.8C130 205.7 140 263.3 150 293C160 322.7 170 324.3 180 299.8C190 275.3 200 224.7 210 207.5C220 190.3 230 206.7 240 206.7C250 206.7 260 190.3 270 206.3C280 222.3 290 270.7 295 294.8L300 319L300 601L295 601C290 601 280 601 270 601C260 601 250 601 240 601C230 601 220 601 210 601C200 601 190 601 180 601C170 601 160 601 150 601C140 601 130 601 120 601C110 601 100 601 90 601C80 601 70 601 60 601C50 601 40 601 30 601C20 601 10 601 5 601L0 601Z" fill="#1e234e"></path><path d="M0 294L5 305.3C10 316.7 20 339.3 30 324C40 308.7 50 255.3 60 253.2C70 251 80 300 90 320C100 340 110 331 120 314.5C130 298 140 274 150 269.2C160 264.3 170 278.7 180 278.7C190 278.7 200 264.3 210 259C220 253.7 230 257.3 240 266.3C250 275.3 260 289.7 270 282.7C280 275.7 290 247.3 295 233.2L300 219L300 601L295 601C290 601 280 601 270 601C260 601 250 601 240 601C230 601 220 601 210 601C200 601 190 601 180 601C170 601 160 601 150 601C140 601 130 601 120 601C110 601 100 601 90 601C80 601 70 601 60 601C50 601 40 601 30 601C20 601 10 601 5 601L0 601Z" fill="#13193c"></path><path d="M0 237L5 236.8C10 236.7 20 236.3 30 257.7C40 279 50 322 60 331.8C70 341.7 80 318.3 90 318.5C100 318.7 110 342.3 120 339C130 335.7 140 305.3 150 298.2C160 291 170 307 180 325.3C190 343.7 200 364.3 210 371C220 377.7 230 370.3 240 346.5C250 322.7 260 282.3 270 280.5C280 278.7 290 315.3 295 333.7L300 352L300 601L295 601C290 601 280 601 270 601C260 601 250 601 240 601C230 601 220 601 210 601C200 601 190 601 180 601C170 601 160 601 150 601C140 601 130 601 120 601C110 601 100 601 90 601C80 601 70 601 60 601C50 601 40 601 30 601C20 601 10 601 5 601L0 601Z" fill="#0a0d2a"></path><path d="M0 292L5 304.2C10 316.3 20 340.7 30 340.8C40 341 50 317 60 316C70 315 80 337 90 357.5C100 378 110 397 120 397.2C130 397.3 140 378.7 150 371.8C160 365 170 370 180 355.7C190 341.3 200 307.7 210 303C220 298.3 230 322.7 240 340C250 357.3 260 367.7 270 359.2C280 350.7 290 323.3 295 309.7L300 296L300 601L295 601C290 601 280 601 270 601C260 601 250 601 240 601C230 601 220 601 210 601C200 601 190 601 180 601C170 601 160 601 150 601C140 601 130 601 120 601C110 601 100 601 90 601C80 601 70 601 60 601C50 601 40 601 30 601C20 601 10 601 5 601L0 601Z" fill="#060624"></path><path d="M0 345L5 339.2C10 333.3 20 321.7 30 324.3C40 327 50 344 60 366.5C70 389 80 417 90 422.5C100 428 110 411 120 399.8C130 388.7 140 383.3 150 383C160 382.7 170 387.3 180 382.2C190 377 200 362 210 357.5C220 353 230 359 240 369C250 379 260 393 270 407.2C280 421.3 290 435.7 295 442.8L300 450L300 601L295 601C290 601 280 601 270 601C260 601 250 601 240 601C230 601 220 601 210 601C200 601 190 601 180 601C170 601 160 601 150 601C140 601 130 601 120 601C110 601 100 601 90 601C80 601 70 601 60 601C50 601 40 601 30 601C20 601 10 601 5 601L0 601Z" fill="#060624"></path><path d="M0 386L5 401C10 416 20 446 30 453.3C40 460.7 50 445.3 60 442.7C70 440 80 450 90 444.2C100 438.3 110 416.7 120 400.2C130 383.7 140 372.3 150 368.8C160 365.3 170 369.7 180 384.7C190 399.7 200 425.3 210 441.7C220 458 230 465 240 449.8C250 434.7 260 397.3 270 396.3C280 395.3 290 430.7 295 448.3L300 466L300 601L295 601C290 601 280 601 270 601C260 601 250 601 240 601C230 601 220 601 210 601C200 601 190 601 180 601C170 601 160 601 150 601C140 601 130 601 120 601C110 601 100 601 90 601C80 601 70 601 60 601C50 601 40 601 30 601C20 601 10 601 5 601L0 601Z" fill="#0a0d2a"></path><path d="M0 396L5 411.5C10 427 20 458 30 468C40 478 50 467 60 469.5C70 472 80 488 90 477.5C100 467 110 430 120 424.7C130 419.3 140 445.7 150 459.7C160 473.7 170 475.3 180 474.7C190 474 200 471 210 468.5C220 466 230 464 240 463.2C250 462.3 260 462.7 270 462.7C280 462.7 290 462.3 295 462.2L300 462L300 601L295 601C290 601 280 601 270 601C260 601 250 601 240 601C230 601 220 601 210 601C200 601 190 601 180 601C170 601 160 601 150 601C140 601 130 601 120 601C110 601 100 601 90 601C80 601 70 601 60 601C50 601 40 601 30 601C20 601 10 601 5 601L0 601Z" fill="#13193c"></path><path d="M0 483L5 482.3C10 481.7 20 480.3 30 480.7C40 481 50 483 60 479.5C70 476 80 467 90 473.2C100 479.3 110 500.7 120 511.5C130 522.3 140 522.7 150 514C160 505.3 170 487.7 180 473.2C190 458.7 200 447.3 210 455.5C220 463.7 230 491.3 240 505C250 518.7 260 518.3 270 517.7C280 517 290 516 295 515.5L300 515L300 601L295 601C290 601 280 601 270 601C260 601 250 601 240 601C230 601 220 601 210 601C200 601 190 601 180 601C170 601 160 601 150 601C140 601 130 601 120 601C110 601 100 601 90 601C80 601 70 601 60 601C50 601 40 601 30 601C20 601 10 601 5 601L0 601Z" fill="#1e234e"></path><path d="M0 519L5 521.3C10 523.7 20 528.3 30 528.5C40 528.7 50 524.3 60 524.2C70 524 80 528 90 529.3C100 530.7 110 529.3 120 522.7C130 516 140 504 150 504.3C160 504.7 170 517.3 180 521.5C190 525.7 200 521.3 210 513C220 504.7 230 492.3 240 494.5C250 496.7 260 513.3 270 515.2C280 517 290 504 295 497.5L300 491L300 601L295 601C290 601 280 601 270 601C260 601 250 601 240 601C230 601 220 601 210 601C200 601 190 601 180 601C170 601 160 601 150 601C140 601 130 601 120 601C110 601 100 601 90 601C80 601 70 601 60 601C50 601 40 601 30 601C20 601 10 601 5 601L0 601Z" fill="#2b2d60"></path><path d="M0 538L5 543C10 548 20 558 30 561.7C40 565.3 50 562.7 60 561.7C70 560.7 80 561.3 90 562.7C100 564 110 566 120 561.3C130 556.7 140 545.3 150 548C160 550.7 170 567.3 180 570.5C190 573.7 200 563.3 210 562.2C220 561 230 569 240 567C250 565 260 553 270 546.7C280 540.3 290 539.7 295 539.3L300 539L300 601L295 601C290 601 280 601 270 601C260 601 250 601 240 601C230 601 220 601 210 601C200 601 190 601 180 601C170 601 160 601 150 601C140 601 130 601 120 601C110 601 100 601 90 601C80 601 70 601 60 601C50 601 40 601 30 601C20 601 10 601 5 601L0 601Z" fill="#383773"></path></svg>