<svg id="visual" viewBox="0 0 300 600" width="300" height="600" xmlns="http://www.w3.org/2000/svg" xmlns:xlink="http://www.w3.org/1999/xlink" version="1.1"><rect x="0" y="0" width="300" height="600" fill="#635fc3"></rect><path d="M0 362L4.2 337.7C8.3 313.3 16.7 264.7 25 244C33.3 223.3 41.7 230.7 50 249.7C58.3 268.7 66.7 299.3 75 295.3C83.3 291.3 91.7 252.7 100 261.5C108.3 270.3 116.7 326.7 125 344.7C133.3 362.7 141.7 342.3 150 334.2C158.3 326 166.7 330 175 321.3C183.3 312.7 191.7 291.3 200 295.3C208.3 299.3 216.7 328.7 225 331C233.3 333.3 241.7 308.7 250 291.8C258.3 275 266.7 266 275 263C283.3 260 291.7 263 295.8 264.5L300 266L300 601L295.8 601C291.7 601 283.3 601 275 601C266.7 601 258.3 601 250 601C241.7 601 233.3 601 225 601C216.7 601 208.3 601 200 601C191.7 601 183.3 601 175 601C166.7 601 158.3 601 150 601C141.7 601 133.3 601 125 601C116.7 601 108.3 601 100 601C91.7 601 83.3 601 75 601C66.7 601 58.3 601 50 601C41.7 601 33.3 601 25 601C16.7 601 8.3 601 4.2 601L0 601Z" fill="#4643b2" stroke-linecap="round" stroke-linejoin="miter"></path></svg>